<?xml version="1.0" encoding="UTF-8"?>
<!DOCTYPE svg PUBLIC "-//W3C//DTD SVG 1.1//EN" "http://www.w3.org/Graphics/SVG/1.1/DTD/svg11.dtd">
<svg xmlns="http://www.w3.org/2000/svg" version="1.1" width="68px" height="67px" style="shape-rendering:geometricPrecision; text-rendering:geometricPrecision; image-rendering:optimizeQuality; fill-rule:evenodd; clip-rule:evenodd" xmlns:xlink="http://www.w3.org/1999/xlink">
<g><path style="opacity:1" fill="#020207" d="M -0.5,-0.5 C 22.1667,-0.5 44.8333,-0.5 67.5,-0.5C 67.5,21.8333 67.5,44.1667 67.5,66.5C 44.8333,66.5 22.1667,66.5 -0.5,66.5C -0.5,44.1667 -0.5,21.8333 -0.5,-0.5 Z"/></g>
<g><path style="opacity:1" fill="#0054f4" d="M 8.5,4.5 C 25.5,4.5 42.5,4.5 59.5,4.5C 59.3812,9.45602 57.0479,12.956 52.5,15C 39.2582,15.1764 26.0915,15.6764 13,16.5C 12.3333,25.8333 12.3333,35.1667 13,44.5C 13.7065,46.0806 14.5399,47.5806 15.5,49C 26.8284,49.4999 38.1618,49.6665 49.5,49.5C 49.7009,46.4922 50.0343,43.4922 50.5,40.5C 50.6738,38.3066 50.0071,36.4733 48.5,35C 41.1667,34.6667 33.8333,34.3333 26.5,34C 23.0693,31.6372 20.7359,28.4705 19.5,24.5C 31.1524,23.3341 42.8191,23.1675 54.5,24C 60.7429,29.7777 62.9095,36.9444 61,45.5C 60.461,48.5285 59.7943,51.5285 59,54.5C 58.3147,57.0573 56.8147,58.8906 54.5,60C 39.8333,60.6667 25.1667,60.6667 10.5,60C 6.5095,58.0096 4.0095,54.8429 3,50.5C 2.33333,37.5 2.33333,24.5 3,11.5C 3.93826,8.40247 5.77159,6.06914 8.5,4.5 Z"/></g>
</svg>
